<?xml version="1.0" encoding="UTF-8" standalone="no"?>
<!-- Generator: Adobe Illustrator 17.0.0, SVG Export Plug-In . SVG Version: 6.00 Build 0)  -->

<svg
   xmlns:dc="http://purl.org/dc/elements/1.1/"
   xmlns:cc="http://creativecommons.org/ns#"
   xmlns:rdf="http://www.w3.org/1999/02/22-rdf-syntax-ns#"
   xmlns:svg="http://www.w3.org/2000/svg"
   xmlns="http://www.w3.org/2000/svg"
   xmlns:sodipodi="http://sodipodi.sourceforge.net/DTD/sodipodi-0.dtd"
   xmlns:inkscape="http://www.inkscape.org/namespaces/inkscape"
   version="1.1"
   id="Шар_1"
   x="0px"
   y="0px"
   width="325px"
   height="325px"
   viewBox="0 0 325 325"
   enable-background="new 0 0 325 325"
   xml:space="preserve"
   inkscape:version="0.91 r13725"
   sodipodi:docname="HoReCa [Перетворений].svg"><metadata
     id="metadata3454"><rdf:RDF><cc:Work
         rdf:about=""><dc:format>image/svg+xml</dc:format><dc:type
           rdf:resource="http://purl.org/dc/dcmitype/StillImage" /><dc:title></dc:title></cc:Work></rdf:RDF></metadata><defs
     id="defs3452" /><sodipodi:namedview
     pagecolor="#ffffff"
     bordercolor="#666666"
     borderopacity="1"
     objecttolerance="10"
     gridtolerance="10"
     guidetolerance="10"
     inkscape:pageopacity="0"
     inkscape:pageshadow="2"
     inkscape:window-width="1035"
     inkscape:window-height="869"
     id="namedview3450"
     showgrid="false"
     inkscape:zoom="2.6769231"
     inkscape:cx="162.5"
     inkscape:cy="162.5"
     inkscape:window-x="0"
     inkscape:window-y="0"
     inkscape:window-maximized="0"
     inkscape:current-layer="Шар_1" /><g
     id="g3416"><path
       fill-rule="evenodd"
       clip-rule="evenodd"
       fill="#133250"
       d="M120.539,125.667c2.687-0.198,4.309,1.641,4,3   c-0.309,1.359-2.691,4.808-4,5c-1.309,0.192-3.524-1.692-5-3C113.778,129.106,116.348,125.975,120.539,125.667z"
       id="path3418" /><path
       fill-rule="evenodd"
       clip-rule="evenodd"
       fill="#133250"
       d="M183.539,78.667c-17.865-0.514-31,19-31,19s-0.5-1.5-3-4   c-2.381-2.381-12-9.75-22-6c-9.167,3.438-12,10-12,10s-6.81-3.228-9,3c-2,5.688,1,10,1,10s-0.195-1.236-0.312-2.875   c-0.188-2.625,1.004-5.644,4.312-6.125c3.438-0.5,3.37,3.139,3,5c-0.37,1.861-3.505,3.886-4,10c-0.495,6.114,1.735,7.768,3,8   s2.858-4.494,7-5c3.547-0.433,5.485,3.643,10,3c1.995-0.284,2.985-2.982,3-8s-4.015-7.977-6-9s-2.276-4.384-1-8   c1.5-4.25,9.485-7.223,13-4s0,12,0,12s5.485-2.483,11,5c2.638,3.58,4,13,4,13s2.235-11.233,8-18s20.99-14.99,27-3   c6.01,11.99-10.244,28.749-15,33s-20.744,17.249-21,29s5,13,5,13s-2.885-8.486,0-14c1.385-2.647,8.365-12.986,25-24   c16.635-11.014,25.74-23.736,26-35C209.799,93.403,201.403,79.18,183.539,78.667z M114.539,119.667c-1.15,0.533-1.85-0.699-2-2   s-0.184-1.866,1-2S115.688,119.134,114.539,119.667z M128.539,115.667c0.017,1.033-0.35,3.134-3,2s-3.35-5.699-1-6   S128.522,114.634,128.539,115.667z"
       id="path3420" /></g><g
     id="g3422"><path
       fill="#FFFFFF"
       d="M86.859,199.94v10.96h11.56v-10.96h6.28v28.56h-6.28v-12.32h-11.56v12.32h-6.28v-28.56H86.859z"
       id="path3424" /><path
       fill="#FFFFFF"
       d="M109.738,213.68c0.506-1.346,1.226-2.493,2.16-3.44c0.933-0.946,2.053-1.68,3.36-2.2   c1.306-0.52,2.773-0.78,4.4-0.78c1.626,0,3.1,0.26,4.42,0.78c1.32,0.52,2.446,1.254,3.38,2.2c0.933,0.947,1.653,2.094,2.16,3.44   c0.506,1.347,0.76,2.847,0.76,4.5c0,1.654-0.254,3.146-0.76,4.48c-0.507,1.333-1.227,2.474-2.16,3.42   c-0.934,0.947-2.06,1.674-3.38,2.18c-1.32,0.506-2.794,0.76-4.42,0.76c-1.627,0-3.094-0.254-4.4-0.76   c-1.307-0.506-2.427-1.233-3.36-2.18c-0.934-0.946-1.654-2.086-2.16-3.42c-0.507-1.333-0.76-2.826-0.76-4.48   C108.978,216.527,109.232,215.027,109.738,213.68z M114.898,220.6c0.16,0.787,0.433,1.494,0.82,2.12   c0.386,0.626,0.9,1.126,1.54,1.5c0.64,0.374,1.44,0.56,2.4,0.56s1.766-0.186,2.42-0.56c0.653-0.374,1.173-0.874,1.56-1.5   c0.386-0.626,0.66-1.333,0.82-2.12c0.16-0.786,0.24-1.593,0.24-2.42s-0.08-1.64-0.24-2.44c-0.16-0.8-0.434-1.506-0.82-2.12   c-0.387-0.613-0.907-1.113-1.56-1.5c-0.654-0.386-1.46-0.58-2.42-0.58s-1.76,0.194-2.4,0.58c-0.64,0.387-1.154,0.887-1.54,1.5   c-0.387,0.614-0.66,1.32-0.82,2.12c-0.16,0.8-0.24,1.613-0.24,2.44S114.738,219.814,114.898,220.6z"
       id="path3426" /><path
       fill="#FFFFFF"
       d="M150.058,199.94c1.28,0,2.433,0.207,3.46,0.62c1.026,0.414,1.906,0.98,2.64,1.7   c0.733,0.72,1.293,1.554,1.68,2.5c0.386,0.947,0.58,1.967,0.58,3.06c0,1.68-0.354,3.134-1.06,4.36c-0.707,1.227-1.86,2.16-3.46,2.8   v0.08c0.773,0.214,1.413,0.54,1.92,0.98c0.506,0.44,0.92,0.96,1.24,1.56c0.32,0.6,0.553,1.26,0.7,1.98   c0.146,0.72,0.246,1.44,0.3,2.16c0.026,0.454,0.053,0.987,0.08,1.6c0.026,0.614,0.073,1.24,0.14,1.88   c0.066,0.64,0.173,1.247,0.32,1.82c0.146,0.574,0.366,1.06,0.66,1.46h-6.28c-0.347-0.906-0.56-1.986-0.64-3.24   c-0.08-1.253-0.2-2.453-0.36-3.6c-0.214-1.493-0.667-2.586-1.36-3.28c-0.694-0.693-1.827-1.04-3.4-1.04h-6.28v11.16h-6.28v-28.56   H150.058z M147.818,212.86c1.44,0,2.52-0.32,3.24-0.96s1.08-1.68,1.08-3.12c0-1.386-0.36-2.393-1.08-3.02   c-0.72-0.626-1.8-0.94-3.24-0.94h-6.88v8.04H147.818z"
       id="path3428" /><path
       fill="#FFFFFF"
       d="M169.018,223.54c0.853,0.827,2.08,1.24,3.68,1.24c1.146,0,2.133-0.286,2.96-0.86   c0.826-0.573,1.333-1.18,1.52-1.82h5c-0.8,2.48-2.027,4.253-3.68,5.32c-1.654,1.067-3.654,1.6-6,1.6c-1.627,0-3.094-0.26-4.4-0.78   c-1.307-0.52-2.414-1.26-3.32-2.22c-0.907-0.96-1.607-2.106-2.1-3.44c-0.494-1.333-0.74-2.8-0.74-4.4   c0-1.546,0.253-2.986,0.76-4.32c0.506-1.333,1.226-2.486,2.16-3.46c0.933-0.973,2.046-1.74,3.34-2.3   c1.293-0.56,2.726-0.84,4.3-0.84c1.76,0,3.293,0.34,4.6,1.02c1.306,0.68,2.38,1.594,3.22,2.74c0.84,1.147,1.446,2.454,1.82,3.92   c0.373,1.467,0.506,3,0.4,4.6h-14.92C167.697,221.38,168.164,222.714,169.018,223.54z M175.437,212.66   c-0.68-0.747-1.714-1.12-3.1-1.12c-0.907,0-1.66,0.154-2.26,0.46c-0.6,0.307-1.08,0.687-1.44,1.14   c-0.36,0.454-0.614,0.934-0.76,1.44c-0.147,0.507-0.234,0.96-0.26,1.36h9.24C176.591,214.5,176.118,213.407,175.437,212.66z"
       id="path3430" /><path
       fill="#FFFFFF"
       d="M204.817,207.56c-0.374-0.6-0.84-1.126-1.4-1.58c-0.56-0.453-1.194-0.806-1.9-1.06   c-0.707-0.253-1.447-0.38-2.22-0.38c-1.414,0-2.614,0.274-3.6,0.82c-0.987,0.547-1.787,1.28-2.4,2.2   c-0.614,0.92-1.06,1.967-1.34,3.14s-0.42,2.387-0.42,3.64c0,1.2,0.14,2.367,0.42,3.5c0.28,1.134,0.726,2.154,1.34,3.06   c0.613,0.907,1.413,1.634,2.4,2.18c0.986,0.547,2.187,0.82,3.6,0.82c1.92,0,3.42-0.586,4.5-1.76c1.08-1.173,1.74-2.72,1.98-4.64   h6.08c-0.16,1.787-0.574,3.4-1.24,4.84s-1.547,2.667-2.64,3.68c-1.094,1.014-2.374,1.787-3.84,2.32c-1.467,0.533-3.08,0.8-4.84,0.8   c-2.187,0-4.154-0.38-5.9-1.14c-1.747-0.76-3.22-1.806-4.42-3.14c-1.2-1.333-2.12-2.9-2.76-4.7c-0.64-1.8-0.96-3.74-0.96-5.82   c0-2.133,0.32-4.113,0.96-5.94c0.64-1.826,1.56-3.42,2.76-4.78c1.2-1.36,2.673-2.426,4.42-3.2c1.746-0.773,3.713-1.16,5.9-1.16   c1.573,0,3.06,0.227,4.46,0.68c1.4,0.454,2.653,1.114,3.76,1.98c1.106,0.867,2.02,1.94,2.74,3.22c0.72,1.28,1.173,2.747,1.36,4.4   h-6.08C205.43,208.82,205.19,208.16,204.817,207.56z"
       id="path3432" /><path
       fill="#FFFFFF"
       d="M215.297,214.18c0.08-1.333,0.413-2.44,1-3.32c0.586-0.88,1.333-1.586,2.24-2.12   c0.906-0.533,1.926-0.914,3.06-1.14c1.133-0.227,2.273-0.34,3.42-0.34c1.04,0,2.093,0.074,3.16,0.22   c1.066,0.147,2.04,0.434,2.92,0.86c0.88,0.427,1.6,1.02,2.16,1.78c0.56,0.76,0.84,1.767,0.84,3.02v10.76   c0,0.934,0.053,1.827,0.16,2.68c0.106,0.854,0.293,1.494,0.56,1.92h-5.76c-0.107-0.32-0.194-0.646-0.26-0.98   c-0.067-0.333-0.114-0.673-0.14-1.02c-0.907,0.934-1.974,1.587-3.2,1.96c-1.227,0.373-2.48,0.56-3.76,0.56   c-0.987,0-1.907-0.12-2.76-0.36c-0.854-0.24-1.6-0.613-2.24-1.12c-0.64-0.506-1.14-1.146-1.5-1.92   c-0.36-0.773-0.54-1.693-0.54-2.76c0-1.173,0.206-2.14,0.62-2.9c0.414-0.76,0.946-1.366,1.6-1.82c0.653-0.453,1.4-0.793,2.24-1.02   c0.84-0.227,1.686-0.406,2.54-0.54c0.853-0.133,1.693-0.24,2.52-0.32c0.826-0.08,1.56-0.2,2.2-0.36c0.64-0.16,1.146-0.393,1.52-0.7   c0.373-0.307,0.546-0.753,0.52-1.34c0-0.613-0.1-1.1-0.3-1.46c-0.2-0.36-0.467-0.64-0.8-0.84c-0.333-0.2-0.72-0.333-1.16-0.4   c-0.44-0.066-0.914-0.1-1.42-0.1c-1.12,0-2,0.24-2.64,0.72s-1.014,1.28-1.12,2.4H215.297z M228.417,218.38   c-0.24,0.214-0.54,0.38-0.9,0.5s-0.747,0.22-1.16,0.3c-0.414,0.08-0.847,0.146-1.3,0.2c-0.454,0.054-0.907,0.12-1.36,0.2   c-0.427,0.08-0.847,0.187-1.26,0.32c-0.414,0.134-0.774,0.314-1.08,0.54c-0.307,0.227-0.554,0.514-0.74,0.86   c-0.187,0.347-0.28,0.787-0.28,1.32c0,0.507,0.093,0.934,0.28,1.28c0.186,0.347,0.44,0.62,0.76,0.82c0.32,0.2,0.693,0.34,1.12,0.42   c0.426,0.08,0.866,0.12,1.32,0.12c1.12,0,1.986-0.186,2.6-0.56c0.613-0.374,1.066-0.82,1.36-1.34s0.473-1.046,0.54-1.58   c0.066-0.533,0.1-0.96,0.1-1.28V218.38z"
       id="path3434" /></g><g
     id="g3436"><path
       fill="#133351"
       d="M141.628,256v-11.375h1.539v5.023h0.844l4.219-5.023h1.734l0.016,0.039l-4.609,5.378l4.938,5.919   L150.292,256h-1.867l-4.258-5.141h-1V256H141.628z"
       id="path3438" /><path
       fill="#133351"
       d="M151.956,256v-11.375h1.539V256H151.956z"
       id="path3440" /><path
       fill="#133351"
       d="M156.323,256v-11.375h6.922v1.211h-5.383v3.68h4.672v1.211h-4.672v4.062h5.469V256H156.323z"
       id="path3442" /><path
       fill="#133351"
       d="M163.995,244.625h1.672l2.938,8.391l0.258,0.945h0.047l0.258-0.945l2.938-8.391h1.664L169.542,256h-1.32   L163.995,244.625z"
       id="path3444" /></g><rect
     x="189.5"
     y="250.5"
     fill="#2984C6"
     width="47"
     height="1"
     id="rect3446" /><rect
     x="80.241"
     y="250"
     fill="#2984C6"
     width="47"
     height="1"
     id="rect3448" /></svg>